<svg width="841.9" height="595.3" xmlns="http://www.w3.org/2000/svg">

 <g>
  <title>background</title>
  <rect fill="none" id="canvas_background" height="402" width="582" y="-1" x="-1"/>
 </g>
 <g>
  <title>Layer 1</title>
  <rect stroke="null" id="svg_44" height="436.999989" width="490" y="81.650002" x="176" stroke-opacity="null" stroke-width="null" fill="#000000"/>
  <rect id="svg_11" height="186" width="15" y="207.650002" x="618" stroke-opacity="null" stroke-width="null" stroke="null" fill="#ffff00"/>
  <rect id="svg_12" height="186" width="15" y="206.650002" x="648" stroke-opacity="null" stroke-width="null" stroke="null" fill="#e5211d"/>
  <rect id="svg_13" height="186" width="15" y="207.650002" x="589" stroke-opacity="null" stroke-width="null" stroke="null" fill="#0000ff"/>
  <rect id="svg_14" height="186" width="15" y="207.650002" x="604" stroke-opacity="null" stroke-width="null" stroke="null" fill="#e5211d"/>
  <rect id="svg_15" height="186" width="15" y="207.650002" x="559" stroke-opacity="null" stroke-width="null" stroke="null" fill="#ffff00"/>
  <rect id="svg_16" height="186" width="15" y="207.650002" x="574" stroke-opacity="null" stroke-width="null" stroke="null" fill="#0000ff"/>
  <rect id="svg_17" height="186" width="15" y="207.650002" x="530" stroke-opacity="null" stroke-width="null" stroke="null" fill="#00bf00"/>
  <rect id="svg_18" height="186" width="15" y="207.650002" x="545" stroke-opacity="null" stroke-width="null" stroke="null" fill="#e5211d"/>
  <rect id="svg_19" height="186" width="15" y="207.650002" x="500" stroke-opacity="null" stroke-width="null" stroke="null" fill="#0000ff"/>
  <rect id="svg_20" height="186" width="15" y="207.650002" x="515" stroke-opacity="null" stroke-width="null" stroke="null" fill="#e5211d"/>
  <rect id="svg_21" height="186" width="15" y="207.650002" x="471" stroke-opacity="null" stroke-width="null" stroke="null" fill="#e5211d"/>
  <rect id="svg_22" height="186" width="15" y="207.650002" x="486" stroke-opacity="null" stroke-width="null" stroke="null" fill="#ffff00"/>
  <rect id="svg_23" height="186" width="15" y="207.650002" x="441" stroke-opacity="null" stroke-width="null" stroke="null" fill="#00bf00"/>
  <rect id="svg_24" height="186" width="15" y="207.650002" x="456" stroke-opacity="null" stroke-width="null" stroke="null" fill="#e5211d"/>
  <rect id="svg_25" height="186" width="15" y="207.650002" x="412" stroke-opacity="null" stroke-width="null" stroke="null" fill="#0000ff"/>
  <rect id="svg_26" height="186" width="15" y="207.650002" x="427" stroke-opacity="null" stroke-width="null" stroke="null" fill="#00bf00"/>
  <rect id="svg_27" height="186" width="15" y="207.650002" x="382" stroke-opacity="null" stroke-width="null" stroke="null" fill="#ffff00"/>
  <rect id="svg_28" height="186" width="15" y="207.650002" x="397" stroke-opacity="null" stroke-width="null" stroke="null" fill="#e5211d"/>
  <rect id="svg_29" height="186" width="15" y="207.650002" x="353" stroke-opacity="null" stroke-width="null" stroke="null" fill="#e5211d"/>
  <rect id="svg_30" height="186" width="15" y="207.650002" x="368" stroke-opacity="null" stroke-width="null" stroke="null" fill="#e5211d"/>
  <rect id="svg_31" height="186" width="15" y="207.650002" x="323" stroke-opacity="null" stroke-width="null" stroke="null" fill="#ffff00"/>
  <rect id="svg_32" height="186" width="15" y="207.650002" x="338" stroke-opacity="null" stroke-width="null" stroke="null" fill="#00bf00"/>
  <rect id="svg_33" height="186" width="15" y="207.650002" x="294" stroke-opacity="null" stroke-width="null" stroke="null" fill="#ffff00"/>
  <rect id="svg_34" height="186" width="15" y="207.650002" x="309" stroke-opacity="null" stroke-width="null" stroke="null" fill="#e5211d"/>
  <rect id="svg_35" height="186" width="15" y="207.650002" x="264" stroke-opacity="null" stroke-width="null" stroke="null" fill="#00bf00"/>
  <rect id="svg_36" height="186" width="15" y="207.650002" x="279" stroke-opacity="null" stroke-width="null" stroke="null" fill="#ffff00"/>
  <rect id="svg_37" height="186" width="15" y="207.650002" x="235" stroke-opacity="null" stroke-width="null" stroke="null" fill="#ffff00"/>
  <rect id="svg_38" height="186" width="15" y="207.650002" x="250" stroke-opacity="null" stroke-width="null" stroke="null" fill="#e5211d"/>
  <rect id="svg_39" height="186" width="15" y="207.650002" x="205" stroke-opacity="null" stroke-width="null" stroke="null" fill="#00bf00"/>
  <rect id="svg_40" height="186" width="15" y="207.650002" x="220" stroke-opacity="null" stroke-width="null" stroke="null" fill="#e5211d"/>
  <rect id="svg_41" height="186" width="15" y="207.650002" x="176" stroke-opacity="null" stroke-width="null" stroke="null" fill="#0000ff"/>
  <rect id="svg_42" height="186" width="15" y="207.650002" x="191" stroke-opacity="null" stroke-width="null" stroke="null" fill="#e5211d"/>
  <rect id="svg_43" height="186" width="15" y="207.650002" x="633" stroke-opacity="null" stroke-width="null" stroke="null" fill="#00bf00"/>
 </g>
</svg>
